<svg fill="#000000" version="1.1" xmlns="http://www.w3.org/2000/svg" viewBox="-48.96 -48.96 587.52 587.52" xml:space="preserve" stroke="#000000">

<g id="SVGRepo_bgCarrier" stroke-width="0">

<rect x="-48.96" y="-48.96" width="587.52" height="587.52" rx="0" fill="#ffffff" strokewidth="0"/>

</g>

<g id="SVGRepo_tracerCarrier" stroke-linecap="round" stroke-linejoin="round"/>

<g id="SVGRepo_iconCarrier"> <g> <g> <path d="M274.9,50.65v-18.2c12.1-2.3,20.2-6.2,20.2-10.1c0-7-22.6-12.8-50.2-12.8s-50.2,5.8-50.2,12.8c0,4.3,7.8,7.8,20.2,10.1 v18.3H59.5l-16.7,63.7h404.4l-16.7-63.8C430.5,50.65,274.9,50.65,274.9,50.65z"/> <path d="M0,123.85c0,5.1,4.3,9.3,9.3,9.3h31.1l2.3-18.7H9.3C4.3,114.45,0,118.75,0,123.85z"/> <path d="M480.7,114.45h-33.4l2.7,18.7H40.5v328.6c0,10.1,7.8,18.3,17.5,18.3h374.5c9.7,0,17.5-8.2,17.5-18.3v-328.6h30.3 c5.1,0,9.3-4.3,9.3-9.3S485.7,114.45,480.7,114.45z"/> </g> </g> </g>

</svg>
